<svg version="1.2" xmlns="http://www.w3.org/2000/svg" viewBox="0 0 75 73" width="75" height="73"><style>.a{fill:#fff}.b{fill:#5ce1e6}.c{fill:#00040f}</style><path fill-rule="evenodd" class="a" d="m107.5 29.3v28.6h-5.8v-12.5h-12.2v12.5h-5.8v-28.6h5.8v11.6h12.2v-11.6zm15.6 5.8q3.3 0 5.9 1.4 2.6 1.4 4.1 4 1.5 2.6 1.5 6.2 0 3.5-1.5 6.1-1.5 2.6-4.1 4-2.6 1.4-5.9 1.4-3.3 0-5.9-1.4-2.6-1.4-4.1-4-1.5-2.6-1.5-6.1 0-3.6 1.5-6.2 1.5-2.6 4.1-4 2.6-1.4 5.9-1.4zm0 5q-2.4 0-4.1 1.7-1.6 1.7-1.6 4.9 0 3.2 1.6 4.9 1.7 1.6 4.1 1.6 2.4 0 4.1-1.6 1.6-1.7 1.6-4.9 0-3.2-1.6-4.9-1.7-1.7-4.1-1.7zm26-5q3.2 0 5.8 1.4 2.7 1.4 4.2 4 1.5 2.6 1.5 6.2 0 3.5-1.5 6.1-1.5 2.6-4.2 4-2.6 1.4-5.8 1.4-3.3 0-6-1.4-2.6-1.4-4.1-4-1.5-2.6-1.5-6.1 0-3.6 1.5-6.2 1.5-2.6 4.1-4 2.7-1.4 6-1.4zm0 5q-2.4 0-4.1 1.7-1.7 1.7-1.7 4.9 0 3.2 1.7 4.9 1.7 1.6 4.1 1.6 2.3 0 4-1.6 1.7-1.7 1.7-4.9 0-3.2-1.7-4.9-1.7-1.7-4-1.7z"/><path fill-rule="evenodd" class="b" d="m180.6 43.1q2.6 0.6 4.1 2.5 1.6 1.9 1.6 4.5 0 3.6-2.4 5.7-2.4 2.1-7 2.1h-12.3v-28.6h12q4.4 0 6.7 1.9 2.3 1.9 2.3 5.3 0 2.7-1.4 4.4-1.4 1.7-3.6 2.2zm-10.3-1.8h5.2q2.1 0 3.2-1 1.1-0.9 1.1-2.7 0-1.8-1.1-2.8-1-1-3.3-1h-5.1zm5.4 12q2.3 0 3.5-1 1.3-1 1.2-2.9 0.1-1.9-1.2-2.9-1.2-1.1-3.5-1.1h-5.4v7.9zm23.4-18.1q2.8 0 4.8 1.4 2.1 1.3 2.9 3.6v-4.7h5.7v22.5h-5.7v-4.7q-0.8 2.2-2.9 3.6-2 1.4-4.8 1.4-2.9 0-5.1-1.4-2.3-1.4-3.6-4-1.3-2.6-1.3-6.2 0-3.5 1.3-6.1 1.3-2.6 3.6-4 2.2-1.4 5.1-1.4zm1.8 5q-2.7 0-4.3 1.8-1.7 1.7-1.7 4.7 0 3.1 1.7 4.8 1.6 1.7 4.3 1.7 2.6 0 4.2-1.7 1.7-1.8 1.7-4.8 0-3-1.7-4.7-1.6-1.8-4.2-1.8zm30.2-5q3.9 0 6.2 2.5 2.3 2.6 2.3 7.2v13.1h-5.7v-12.4q0-2.7-1.4-4.2-1.3-1.5-3.7-1.5-2.5 0-3.9 1.6-1.5 1.6-1.5 4.6v11.9h-5.7v-22.5h5.7v4.5q0.9-2.3 2.9-3.5 2.1-1.3 4.8-1.3zm26.7 22.8l-7.4-9.8v9.8h-5.8v-30h5.8v16.8l7.3-9.3h6.8l-9.4 11.2 9.7 11.3z"/><path class="c" d="m36.1 0c-7.2 0-14.1 2.1-20.1 6.1-5.9 3.9-10.5 9.6-13.3 16.2-2.7 6.6-3.4 13.8-2 20.8 1.4 7 4.8 13.4 9.9 18.5 5 5 11.4 8.5 18.4 9.8 7 1.4 14.3 0.7 20.9-2 6.6-2.7 12.2-7.4 16.2-13.3 3.9-5.9 6-12.9 6-20h-18c0 3.5-1.1 7-3 10-2 3-4.8 5.3-8.1 6.6-3.3 1.4-7 1.8-10.5 1.1-3.4-0.7-6.7-2.5-9.2-5-2.5-2.5-4.2-5.7-4.9-9.2-0.7-3.5-0.4-7.1 1-10.4 1.4-3.3 3.7-6.1 6.6-8.1 3-2 6.5-3.1 10.1-3.1z"/><path class="b" d="m36.1 0c-4.8 0-9.5 0.9-13.8 2.7-4.4 1.9-8.4 4.5-11.7 7.9-3.4 3.3-6 7.3-7.9 11.7-1.8 4.3-2.7 9-2.7 13.8h18c0-2.4 0.5-4.7 1.4-6.9 0.9-2.2 2.2-4.2 3.9-5.9 1.7-1.7 3.7-3 5.9-3.9 2.2-0.9 4.5-1.4 6.9-1.4z"/><path class="b" d="m36.1 47.3c-6.3 0-11.3-5-11.3-11.2 0-6.3 5-11.3 11.3-11.3 6.2 0 11.2 5 11.2 11.3 0 6.2-5 11.2-11.2 11.2z"/><path class="c" d="m47.3 36.1c0-1.5-0.3-3-0.8-4.3-0.6-1.4-1.4-2.7-2.5-3.7-1-1-2.3-1.9-3.6-2.4-1.4-0.6-2.9-0.9-4.3-0.9-1.5 0-3 0.3-4.3 0.9-1.4 0.5-2.7 1.4-3.7 2.4-1 1-1.9 2.3-2.4 3.7-0.6 1.3-0.9 2.8-0.9 4.3h11.3z"/></svg>